<svg xmlns="http://www.w3.org/2000/svg" id="Camada_1" data-name="Camada 1" viewBox="0 0 281.51 52.8"><defs><style>.cls-1,.cls-2{fill:#fff;}.cls-1{fill-rule:evenodd;}</style></defs><path class="cls-1" d="M111.88,158.44H277.74l-3.57,9.26H108.59l3.29-9.26Zm91.27,6.67h-2.89l-.89,1.61h-1.55l4.12-7.3h1.69l1.18,7.3h-1.42l-.24-1.61Zm-.18-1.23-.43-2.93-1.61,2.93Zm4.35-4.46h1.5l-.87,4-.22,1c0,.08,0,.19,0,.32a.82.82,0,0,0,.35.66,1.66,1.66,0,0,0,1,.25,2,2,0,0,0,1-.2,1.47,1.47,0,0,0,.6-.61,6.7,6.7,0,0,0,.42-1.37l.84-4h1.5l-.87,4.13a7,7,0,0,1-.63,1.85,2.73,2.73,0,0,1-1.08,1,3.8,3.8,0,0,1-1.82.4,2.91,2.91,0,0,1-2-.63,2,2,0,0,1-.7-1.61,2.47,2.47,0,0,1,0-.44c0-.1.07-.41.18-.9l.85-3.85Zm8.94,7.3h-1.5l1.27-6.08h-2.14l.24-1.22h5.75l-.25,1.22h-2.1l-1.27,6.08Zm3.33-2.87a5.63,5.63,0,0,1,.19-1.36,4.77,4.77,0,0,1,.78-1.67,3.65,3.65,0,0,1,1.31-1.12,3.91,3.91,0,0,1,1.8-.41,3,3,0,0,1,2.19.84,3.06,3.06,0,0,1,.83,2.23,5,5,0,0,1-.54,2.24,4,4,0,0,1-1.47,1.66,3.87,3.87,0,0,1-2.11.59,3,3,0,0,1-1.71-.47,2.54,2.54,0,0,1-1-1.14,3.61,3.61,0,0,1-.29-1.39Zm1.49,0a1.76,1.76,0,0,0,.46,1.26,1.52,1.52,0,0,0,1.2.51,1.94,1.94,0,0,0,1.16-.4,2.87,2.87,0,0,0,.93-1.21,4,4,0,0,0,.36-1.59,1.9,1.9,0,0,0-.46-1.36,1.54,1.54,0,0,0-1.18-.49,2.06,2.06,0,0,0-1.78,1,3.93,3.93,0,0,0-.69,2.25Zm6,2.9,1.53-7.3H234l-.26,1.22h-3.9l-.36,1.65h3.78l-.25,1.23h-3.8l-.43,2H233l-.26,1.23Zm7-2.36,1.42-.07a1.57,1.57,0,0,0,.24.92,1.53,1.53,0,0,0,1.21.38,1.7,1.7,0,0,0,1.07-.26.8.8,0,0,0,.33-.64.7.7,0,0,0-.27-.55,5,5,0,0,0-1-.53,9.29,9.29,0,0,1-1.24-.62,1.78,1.78,0,0,1-.61-.64,1.82,1.82,0,0,1-.23-.92,2,2,0,0,1,.67-1.53,2.74,2.74,0,0,1,1.93-.61,3,3,0,0,1,2,.6,2.2,2.2,0,0,1,.77,1.61l-1.43.06a1.19,1.19,0,0,0-.38-.8,1.43,1.43,0,0,0-1-.28,1.35,1.35,0,0,0-.88.22.67.67,0,0,0-.27.55.66.66,0,0,0,.24.52,5.3,5.3,0,0,0,1.08.57,6.06,6.06,0,0,1,1.6.89,1.71,1.71,0,0,1,.51,1.28,2.14,2.14,0,0,1-.76,1.65,3.07,3.07,0,0,1-2.13.69,3.92,3.92,0,0,1-1.63-.32,2,2,0,0,1-1-.87,2.61,2.61,0,0,1-.26-1.3Zm11.85-.26,1.51.23a3.92,3.92,0,0,1-1.33,1.87,3.42,3.42,0,0,1-2.07.65,2.71,2.71,0,0,1-2.09-.81,3.32,3.32,0,0,1-.75-2.34,5.22,5.22,0,0,1,.5-2.28,3.73,3.73,0,0,1,1.4-1.58,3.64,3.64,0,0,1,1.95-.55,2.8,2.8,0,0,1,1.91.63,2.58,2.58,0,0,1,.86,1.73l-1.43.14a1.57,1.57,0,0,0-.46-.92,1.38,1.38,0,0,0-.91-.29,2,2,0,0,0-1.15.38,2.51,2.51,0,0,0-.86,1.19,4.17,4.17,0,0,0-.32,1.61,2.06,2.06,0,0,0,.41,1.36,1.36,1.36,0,0,0,1,.47,1.69,1.69,0,0,0,1.06-.37,2.32,2.32,0,0,0,.72-1.12Zm2.55-.25a5.18,5.18,0,0,1,.19-1.36,4.94,4.94,0,0,1,.77-1.67,3.82,3.82,0,0,1,1.31-1.12,3.92,3.92,0,0,1,1.81-.41,2.92,2.92,0,0,1,2.18.84,3,3,0,0,1,.84,2.23,5,5,0,0,1-.54,2.24,4.07,4.07,0,0,1-1.48,1.66,3.87,3.87,0,0,1-2.1.59,3,3,0,0,1-1.72-.47,2.61,2.61,0,0,1-1-1.14,3.59,3.59,0,0,1-.28-1.39Zm1.48,0a1.81,1.81,0,0,0,.46,1.26,1.55,1.55,0,0,0,1.2.51,2,2,0,0,0,1.17-.4,3,3,0,0,0,.93-1.21,4,4,0,0,0,.36-1.59,1.9,1.9,0,0,0-.46-1.36,1.54,1.54,0,0,0-1.18-.49,2.07,2.07,0,0,0-1.79,1,3.93,3.93,0,0,0-.69,2.25Zm6,2.9,1.53-7.3H259l-1.27,6.07h3.72l-.26,1.23Zm11-1.61H264l-.88,1.61H261.6l4.12-7.3h1.69l1.18,7.3h-1.42l-.24-1.61Zm-.18-1.23-.43-2.93-1.61,2.93Z" transform="translate(-4.65 -131.55)"></path><polygon class="cls-2" points="19.73 0 39.43 0 19.71 52.74 0 52.74 19.73 0 19.73 0"></polygon><path class="cls-1" d="M242.7,146.35h13.71l-2.1,5.53H234.15l7.26-19.42h6.45l-5.16,13.89ZM285.58,138l-4.52,11.91a3.43,3.43,0,0,1-3.34,2h-14.8c-2.67,0-4.25-1.64-3.28-4.3,1.56-4.28,3.23-8.53,4.8-12.82a3.45,3.45,0,0,1,3.47-2.3h14.81c3.8,0,3.93,2.6,2.86,5.51Zm-6.81.83c.17-.4.07-.84-.43-.84h-7.41a1.57,1.57,0,0,0-1.61,1.12l-2.44,6.44h0c-.18.4-.08.83.42.83h7.41a1.41,1.41,0,0,0,1.59-1.09l2.46-6.47Zm-95-.83-4.52,11.91a3.43,3.43,0,0,1-3.34,2H161.13c-2.66,0-4.25-1.63-3.28-4.29,1.57-4.29,3.28-8.53,4.86-12.82a3.38,3.38,0,0,1,3.41-2.3h14.81c3.8,0,3.94,2.6,2.87,5.51Zm-6.82.82c.17-.4.07-.83-.42-.83h-7.42a1.55,1.55,0,0,0-1.6,1.11l-2.45,6.45h0c-.18.4-.08.83.42.83h7.42a1.4,1.4,0,0,0,1.58-1.09L177,138.8Zm-41.76.05a1.33,1.33,0,0,0,.05-.34c0-.38-.11-.52-.49-.52h-7.39a1.59,1.59,0,0,0-1.63,1.16L121,151.86h-6.51l7.32-19.38h33.14c1.9,0,3.49.71,3.5,2.82a7.75,7.75,0,0,1-.61,2.67l-5.33,13.89h-6.43l4.93-13a1.33,1.33,0,0,0,.05-.34c0-.38-.11-.52-.49-.52h-7.39a1.59,1.59,0,0,0-1.63,1.16l-4.79,12.73h-6.44l4.93-13Zm74.55-1.8L205,149.51a3.32,3.32,0,0,1-3.29,2.36H182.27l7.44-19.41H206.1a5,5,0,0,1,2.79.74,2.62,2.62,0,0,1,1.19,2.26,4.53,4.53,0,0,1-.31,1.58Zm-7,1.29a.43.43,0,0,0,0-.05c0-.32-.68-.31-.87-.31h-7.79l-3.22,8.39h7.39c.61,0,1.43-.09,1.69-.74l.15-.41c.24-.57.45-1.16.68-1.73.65-1.72,1.31-3.43,2-5.15Zm14.3,6.24c-.09.2-.17.4-.25.6s-.3.81-.18,1,.42.15.55.15h15.33l-2.07,5.52H214.27c-2,0-4.93-.39-5-3a7.24,7.24,0,0,1,.57-2.33l4.62-12.35c.51-1.34,1.81-1.73,3.13-1.73h15c1.93,0,3.66.67,3.67,2.86a7.52,7.52,0,0,1-.58,2.42l-2.57,6.83Zm1.8-4.72h9.59l.48-1.26c.19-.52-.41-.62-.8-.62H221c-.51,0-1.39-.08-1.6.53l-.51,1.35Z" transform="translate(-4.65 -131.55)"></path><polygon class="cls-2" points="68.9 0 109.72 0 89.87 52.76 49.18 52.74 68.9 0 68.9 0"></polygon><polygon class="cls-2" points="44.35 0 64.05 0 44.32 52.74 24.63 52.74 44.35 0 44.35 0"></polygon><path class="cls-2" d="M110.18,177.57v2.28h.39a1.84,1.84,0,0,0,1.15-.28,1.16,1.16,0,0,0,.33-.94.94.94,0,0,0-.32-.82,1.93,1.93,0,0,0-1.13-.24Zm-1.37-1.07h1.58a4.38,4.38,0,0,1,2.38.47,1.82,1.82,0,0,1,.66,1.59,1.8,1.8,0,0,1-.38,1.18,1.9,1.9,0,0,1-1.11.63,1,1,0,0,1,.57.29,2.45,2.45,0,0,1,.43.88l.9,2.68h-1.46l-.71-2.32a1.86,1.86,0,0,0-.4-.8,1,1,0,0,0-.67-.18h-.42v3.3h-1.37V176.5Z" transform="translate(-4.65 -131.55)"></path><polygon class="cls-2" points="113.68 44.95 117.66 44.95 117.66 46.02 115.07 46.02 115.07 48.18 117.52 48.18 117.52 49.25 115.07 49.25 115.07 51.61 117.78 51.61 117.78 52.67 113.68 52.67 113.68 44.95 113.68 44.95"></polygon><path class="cls-2" d="M129.77,177.76l-1.07,3.5h2.06l-1-3.5ZM129,176.5h1.6l2.42,7.72h-1.45l-.51-1.87h-2.7l-.53,1.87h-1.37L129,176.5Z" transform="translate(-4.65 -131.55)"></path><polygon class="cls-2" points="132.73 44.95 134.12 44.95 134.12 51.54 136.65 51.54 136.65 52.67 132.73 52.67 132.73 44.95 132.73 44.95"></polygon><polygon class="cls-2" points="141.07 44.95 142.47 44.95 142.47 52.67 141.07 52.67 141.07 44.95 141.07 44.95"></polygon><polygon class="cls-2" points="147.26 44.95 151.75 44.95 151.75 46.15 148.64 51.55 151.82 51.55 151.82 52.67 147.15 52.67 147.15 51.41 150.22 46.06 147.26 46.06 147.26 44.95 147.26 44.95"></polygon><path class="cls-2" d="M163.58,177.76l-1.07,3.5h2.06l-1-3.5Zm-.76-1.26h1.6l2.43,7.72h-1.46l-.51-1.87h-2.7l-.53,1.87h-1.37l2.54-7.72Z" transform="translate(-4.65 -131.55)"></path><polygon class="cls-2" points="166.54 44.95 168.16 44.95 170.8 50.94 170.8 44.95 172.01 44.95 172.01 52.67 170.37 52.67 167.76 46.71 167.76 52.67 166.54 52.67 166.54 44.95 166.54 44.95"></polygon><path class="cls-2" d="M183.23,177.57v5.58h.27a2.33,2.33,0,0,0,1.83-.72,3,3,0,0,0,.65-2.07,3.14,3.14,0,0,0-.6-2.11,2.33,2.33,0,0,0-1.83-.68Zm-1.39-1.07h1.65a4.12,4.12,0,0,1,3,.94,3.9,3.9,0,0,1,1,2.92,3.82,3.82,0,0,1-1,2.87,4.08,4.08,0,0,1-2.95,1h-1.65V176.5Z" transform="translate(-4.65 -131.55)"></path><path class="cls-2" d="M195,177.44a1.3,1.3,0,0,0-1.18.75,5.92,5.92,0,0,0,0,4.33,1.32,1.32,0,0,0,2.37,0,4.64,4.64,0,0,0,.4-2.16,4.55,4.55,0,0,0-.41-2.17,1.28,1.28,0,0,0-1.18-.75Zm0-1.06a2.69,2.69,0,0,1,2.27,1,5.78,5.78,0,0,1,0,5.87,3,3,0,0,1-4.53,0,5.74,5.74,0,0,1,0-5.88,2.67,2.67,0,0,1,2.26-1Z" transform="translate(-4.65 -131.55)"></path><path class="cls-2" d="M220,176.62,220,177.8a4,4,0,0,0-.72-.24,2.86,2.86,0,0,0-.63-.08,1.35,1.35,0,0,0-.84.23.83.83,0,0,0-.29.67.9.9,0,0,0,.21.58,4.75,4.75,0,0,0,1,.73l.11.07c1.09.7,1.63,1.45,1.63,2.25a2.2,2.2,0,0,1-.69,1.69,2.58,2.58,0,0,1-1.82.64,4.7,4.7,0,0,1-.92-.09,4,4,0,0,1-.83-.28l.1-1.18a4.17,4.17,0,0,0,.8.34,3.12,3.12,0,0,0,.78.11,1.29,1.29,0,0,0,.87-.27.88.88,0,0,0,.32-.72c0-.47-.39-.95-1.18-1.44l-.26-.16a4.35,4.35,0,0,1-1.2-1,2.15,2.15,0,0,1,.34-2.68,2.7,2.7,0,0,1,1.8-.57,4.87,4.87,0,0,1,.76.06,4.56,4.56,0,0,1,.75.18Z" transform="translate(-4.65 -131.55)"></path><path class="cls-2" d="M228,177.44a1.3,1.3,0,0,0-1.19.75,5.92,5.92,0,0,0,0,4.33,1.32,1.32,0,0,0,2.37,0,5.92,5.92,0,0,0,0-4.33,1.3,1.3,0,0,0-1.18-.75Zm0-1.06a2.67,2.67,0,0,1,2.26,1,5.72,5.72,0,0,1,0,5.87,3,3,0,0,1-4.53,0,5.74,5.74,0,0,1,0-5.88,2.67,2.67,0,0,1,2.27-1Z" transform="translate(-4.65 -131.55)"></path><polygon class="cls-2" points="231.21 44.95 232.83 44.95 235.46 50.94 235.46 44.95 236.68 44.95 236.68 52.67 235.04 52.67 232.43 46.71 232.43 52.67 231.21 52.67 231.21 44.95 231.21 44.95"></polygon><polygon class="cls-2" points="241.86 44.95 243.25 44.95 243.25 48.11 245.5 48.11 245.5 44.95 246.89 44.95 246.89 52.67 245.5 52.67 245.5 49.26 243.25 49.26 243.25 52.67 241.86 52.67 241.86 44.95 241.86 44.95"></polygon><path class="cls-2" d="M259.43,177.44a1.3,1.3,0,0,0-1.18.75,5.92,5.92,0,0,0,0,4.33,1.32,1.32,0,0,0,2.37,0,5.92,5.92,0,0,0,0-4.33,1.3,1.3,0,0,0-1.19-.75Zm0-1.06a2.69,2.69,0,0,1,2.27,1,5.72,5.72,0,0,1,0,5.87,3,3,0,0,1-4.53,0,5.74,5.74,0,0,1,0-5.88,2.67,2.67,0,0,1,2.26-1Z" transform="translate(-4.65 -131.55)"></path><path class="cls-2" d="M271,176.62l-.06,1.18a3.8,3.8,0,0,0-.72-.24,2.86,2.86,0,0,0-.63-.08,1.38,1.38,0,0,0-.84.23.83.83,0,0,0-.29.67.9.9,0,0,0,.21.58,4.75,4.75,0,0,0,1,.73l.11.07c1.09.7,1.64,1.45,1.64,2.25a2.21,2.21,0,0,1-.7,1.69,2.56,2.56,0,0,1-1.82.64,4.78,4.78,0,0,1-.92-.09,4.26,4.26,0,0,1-.83-.28l.1-1.18a4.25,4.25,0,0,0,.81.34,3,3,0,0,0,.78.11,1.28,1.28,0,0,0,.86-.27.88.88,0,0,0,.32-.72c0-.47-.39-.95-1.18-1.44l-.26-.16a4.35,4.35,0,0,1-1.2-1,2,2,0,0,1-.32-1.12,2,2,0,0,1,.67-1.56,2.65,2.65,0,0,1,1.79-.57,4.87,4.87,0,0,1,.76.06,4.56,4.56,0,0,1,.75.18Z" transform="translate(-4.65 -131.55)"></path><polygon class="cls-2" points="271.48 51.22 272.78 51.22 272.78 52.67 271.48 52.67 271.48 51.22 271.48 51.22"></polygon></svg>